<?xml version="1.0" standalone="no"?>
<!DOCTYPE svg PUBLIC "-//W3C//DTD SVG 20010904//EN"
 "http://www.w3.org/TR/2001/REC-SVG-20010904/DTD/svg10.dtd">
<svg version="1.0" xmlns="http://www.w3.org/2000/svg"
 width="800.000000pt" height="800.000000pt" viewBox="0 0 800.000000 800.000000"
 preserveAspectRatio="xMidYMid meet">
<metadata>
Created by potrace 1.14, written by Peter Selinger 2001-2017
</metadata>
<g transform="translate(0.000000,800.000000) scale(0.100000,-0.100000)"
fill="#000000" stroke="none">
<path d="M2670 6745 c-243 -37 -436 -104 -635 -222 -129 -77 -325 -248 -422
-368 -202 -250 -328 -552 -360 -870 -12 -114 -4 -419 12 -445 2 -3 6 -21 9
-40 12 -76 49 -200 91 -303 38 -94 60 -138 135 -266 76 -131 279 -344 431
-454 189 -135 464 -250 674 -281 23 -4 52 -9 65 -13 14 -4 576 -8 1250 -10
862 -2 1246 -6 1295 -14 234 -38 435 -242 472 -479 5 -37 4 -154 -3 -197 -17
-105 -81 -221 -173 -313 -66 -65 -188 -130 -281 -150 -40 -8 -465 -11 -1515
-11 l-1461 0 -532 -532 -532 -532 2032 1 c2013 0 2084 1 2213 31 11 2 34 6 50
9 64 11 267 85 356 129 99 50 260 154 319 206 261 230 421 466 520 769 78 239
97 538 50 800 -50 281 -194 575 -387 790 -184 206 -388 345 -668 455 -28 11
-30 12 -129 39 -84 24 -123 32 -191 41 -16 3 -48 8 -70 11 -22 4 -591 8 -1265
9 -1110 2 -1231 4 -1284 19 -119 33 -238 114 -311 211 -43 56 -92 157 -100
206 -3 18 -8 36 -11 40 -11 19 -4 189 10 244 37 137 127 266 236 338 53 35
126 70 133 65 2 -2 11 3 20 11 10 7 17 11 17 8 0 -3 15 -1 33 5 22 8 488 11
1508 12 l1476 2 526 526 c290 290 527 529 527 532 0 4 -910 6 -2022 5 -1584
-1 -2041 -4 -2108 -14z"/>
</g>
</svg>
