<?xml version="1.0" standalone="no"?>
<!DOCTYPE svg PUBLIC "-//W3C//DTD SVG 20010904//EN"
 "http://www.w3.org/TR/2001/REC-SVG-20010904/DTD/svg10.dtd">
<svg version="1.0" xmlns="http://www.w3.org/2000/svg"
 width="3080.000000pt" height="3080.000000pt" viewBox="0 0 3080.000000 3080.000000"
 preserveAspectRatio="xMidYMid meet">
<metadata>
Created by potrace 1.14, written by Peter Selinger 2001-2017
</metadata>
<g transform="translate(0.000000,3080.000000) scale(0.100000,-0.100000)"
fill="#000000" stroke="none">
<path d="M8775 30743 c-246 -14 -422 -28 -600 -48 -1870 -210 -3611 -983
-5045 -2241 -173 -151 -534 -507 -703 -692 -775 -848 -1398 -1867 -1805 -2952
-483 -1288 -669 -2671 -546 -4060 119 -1351 548 -2669 1255 -3855 885 -1486
2182 -2697 3727 -3478 1147 -581 2371 -906 3672 -977 120 -6 2422 -10 6565
-10 4324 0 6425 -3 6520 -10 774 -58 1468 -368 2023 -904 453 -438 769 -999
906 -1612 59 -259 70 -376 70 -704 0 -262 -3 -325 -22 -447 -54 -360 -145
-654 -297 -968 -163 -336 -367 -617 -647 -890 -511 -502 -1100 -789 -1848
-902 -108 -17 -575 -18 -8220 -20 l-8105 -3 -2837 -2838 -2838 -2837 0 -127 0
-128 10959 0 c7306 0 11018 3 11137 10 1240 71 2355 358 3504 903 535 253
1196 673 1720 1092 387 310 846 747 1155 1100 1151 1318 1886 2864 2165 4559
92 556 126 1026 117 1626 -6 399 -14 538 -52 880 -154 1391 -626 2735 -1375
3914 -131 206 -320 476 -472 673 -1556 2016 -3905 3304 -6433 3527 -93 9 -195
18 -225 22 -30 3 -3036 9 -6680 13 -6126 6 -6634 8 -6739 24 -750 110 -1350
397 -1859 891 -457 443 -768 997 -906 1612 -59 259 -70 376 -70 704 0 262 3
325 22 447 107 707 400 1302 887 1802 516 530 1147 847 1910 958 113 16 575
17 8240 20 l8120 3 2838 2838 2837 2837 0 127 0 128 -10987 -2 c-6044 -1
-11010 -3 -11038 -5z"/>
</g>
</svg>
